<?xml version="1.0" encoding="utf-8"?>
<!-- Generator: Adobe Illustrator 20.1.0, SVG Export Plug-In . SVG Version: 6.00 Build 0)  -->
<svg version="1.1" id="Layer_1" xmlns="http://www.w3.org/2000/svg" xmlns:xlink="http://www.w3.org/1999/xlink" x="0px" y="0px"
	 viewBox="0 0 28.7 28.7" style="enable-background:new 0 0 28.7 28.7;" xml:space="preserve">
<style type="text/css">
	.st0{fill:#030027;}
	.st1{fill:none;}
	.st2{opacity:0.37;fill:#FFFFFF;stroke:#FFFFFF;stroke-width:0.1;stroke-miterlimit:10;}
	.st3{fill:#FFFFFF;}
	.st4{font-family:'DarkerGrotesque-Black';}
	.st5{font-size:12.9679px;}
	.st6{fill:#FFD500;}
</style>
<path class="st0" d="M24.2,28.7H4.5c-2.5,0-4.5-2-4.5-4.5V4.5C0,2,2,0,4.5,0h19.7c2.5,0,4.5,2,4.5,4.5v19.7
	C28.7,26.7,26.7,28.7,24.2,28.7z"/>
<line class="st1" x1="23.2" y1="0.2" x2="23.2" y2="28.7"/>
<line class="st2" x1="5.6" y1="0.2" x2="5.6" y2="28.7"/>
<text transform="matrix(1 0 0 1 1.1953 17.7129)" class="st3 st4 st5">V</text>
<text transform="matrix(1 0 0 1 10.4893 17.7129)" class="st6 st4 st5">_</text>
<text transform="matrix(1 0 0 1 20.1074 17.7129)" class="st3 st4 st5">C</text>
<line class="st2" x1="24.6" y1="0.2" x2="24.6" y2="28.7"/>
</svg>
